<?xml version="1.0" encoding="UTF-8" standalone="no"?>
<svg
   preserveAspectRatio="none"
   viewBox="0 0 182.47417 103.31294"
   version="1.1"
   id="svg6"
   sodipodi:docname="div.svg"
   inkscape:version="1.4.2 (f4327f4, 2025-05-13)"
   width="182.47417"
   height="103.31294"
   xmlns:inkscape="http://www.inkscape.org/namespaces/inkscape"
   xmlns:sodipodi="http://sodipodi.sourceforge.net/DTD/sodipodi-0.dtd"
   xmlns="http://www.w3.org/2000/svg"
   xmlns:svg="http://www.w3.org/2000/svg">
  <defs
     id="defs6" />
  <sodipodi:namedview
     id="namedview6"
     pagecolor="#ffffff"
     bordercolor="#000000"
     borderopacity="0.25"
     inkscape:showpageshadow="2"
     inkscape:pageopacity="0.0"
     inkscape:pagecheckerboard="0"
     inkscape:deskcolor="#d1d1d1"
     showgrid="false"
     inkscape:zoom="3.1709177"
     inkscape:cx="61.33871"
     inkscape:cy="40.366863"
     inkscape:window-width="1280"
     inkscape:window-height="730"
     inkscape:window-x="-6"
     inkscape:window-y="-6"
     inkscape:window-maximized="1"
     inkscape:current-layer="layer1" />
  <rect
     style="display:none;opacity:1;fill:#000000;fill-opacity:1;stroke:#000000;stroke-width:2.51339;stroke-linecap:round;stroke-linejoin:round;paint-order:fill markers stroke"
     id="rect6"
     width="222.01775"
     height="126.14645"
     x="-9.2551441"
     y="-1.5029098" />
  <g
     inkscape:groupmode="layer"
     id="layer1"
     inkscape:label="Layer 1"
     transform="translate(2.0980354,1.6507514)">
    <path
       style="font-variation-settings:normal;display:inline;opacity:1;vector-effect:none;fill:#ffffff;fill-opacity:1;stroke:#ffffff;stroke-width:2.64567;stroke-linecap:round;stroke-linejoin:round;stroke-miterlimit:4;stroke-dasharray:none;stroke-dashoffset:0;stroke-opacity:1;-inkscape-stroke:none;paint-order:fill markers stroke;stop-color:#000000;stop-opacity:1"
       d="m 1.1024219,97.357548 c 0,0 -4.0013897,-0.353626 -0.87942438,-13.733478 C 3.3449628,70.244219 6.611167,59.787686 1.3379851,42.592527 -3.7909579,25.867712 4.9059455,-7.8049132 5.574938,2.0069777 6.5336,16.067354 36.571593,4.4599504 51.28943,3.3449628 66.007266,2.2299752 76.107209,1.1459521 92.689784,1.8605008 126.02436,3.2968988 129.57676,6.4622481 147.84733,4.313442 158.903,3.0131822 167.87972,10.18076 172.07744,1.7407138 c 5.56326,-11.1856084 7.99661,34.9994392 2.79307,44.1450562 -5.42494,9.534754 4.1113,54.009775 0.28833,51.38883 -6.17569,-4.233909 -5.27686,-2.905968 -16.40354,-4.905444 C 145.14145,89.922733 107.08265,92.624707 80.456621,93.14394 22.74181,94.269434 37.257464,94.689077 18.966229,93.427611 0.67499382,92.166146 1.1024219,97.357548 1.1024219,97.357548 Z"
       id="path7"
       sodipodi:nodetypes="cssssssssssssc" />
    <path
       style="font-variation-settings:normal;opacity:1;fill:none;fill-opacity:1;stroke:#000000;stroke-width:1.13386;stroke-linecap:round;stroke-linejoin:round;stroke-miterlimit:4;stroke-dasharray:none;stroke-dashoffset:0;stroke-opacity:1;paint-order:fill markers stroke;stop-color:#000000;stop-opacity:1"
       d="m 4.5918902,76.063885 c 0,0 -4.0139553,9.811891 -3.6794591,13.268353 0.3344963,3.456461 0.3344963,2.229975 0.6689926,4.236953 0.3344963,2.006977 3.1219653,-2.898968 8.8084023,-2.229976 5.686437,0.668993 37.463584,0.445995 43.038522,-0.89199 5.574938,-1.337985 101.463862,-2.67597 103.247852,-2.006977 1.78398,0.668992 15.83282,3.121965 16.27881,5.128943 0.446,2.006977 -9.36589,-40.362552 -3.56796,-44.376507 5.79794,-4.013956 6.24393,-44.5995048 4.01396,-45.0454998 -2.22998,-0.4459951 8.6969,7.1359208 -23.63774,3.1219652 C 117.42863,3.2551941 70.710656,3.8126879 62.571246,5.3736705 54.86857,6.850896 16.772541,11.378 12.396803,9.8336216 6.7103667,7.8266432 6.5988679,5.3736705 6.5988679,5.3736705 c 0,0 -4.5971438,14.1051085 -1.4434826,26.4043875 3.1536613,12.299278 4.304191,36.583789 -0.5634951,44.285827 z"
       id="path8"
       sodipodi:nodetypes="cssssssssssscsc" />
  </g>
</svg>
