<?xml version="1.0" encoding="UTF-8" standalone="no"?>
<svg
   version="1.0"
   width="1280.000000pt"
   height="640.000000pt"
   viewBox="0 0 1280.000000 640.000000"
   preserveAspectRatio="xMidYMid meet"
   id="svg1"
   sodipodi:docname="spider.svg"
   inkscape:version="1.4.2 (f4327f4, 2025-05-13)"
   xmlns:inkscape="http://www.inkscape.org/namespaces/inkscape"
   xmlns:sodipodi="http://sodipodi.sourceforge.net/DTD/sodipodi-0.dtd"
   xmlns="http://www.w3.org/2000/svg"
   xmlns:svg="http://www.w3.org/2000/svg">
  <defs
     id="defs1" />
  <sodipodi:namedview
     id="namedview1"
     pagecolor="#ffffff"
     bordercolor="#000000"
     borderopacity="0.25"
     inkscape:showpageshadow="2"
     inkscape:pageopacity="0.0"
     inkscape:pagecheckerboard="0"
     inkscape:deskcolor="#d1d1d1"
     inkscape:document-units="pt"
     showgrid="false"
     inkscape:zoom="0.66871309"
     inkscape:cx="711.06728"
     inkscape:cy="599.65926"
     inkscape:window-width="1280"
     inkscape:window-height="730"
     inkscape:window-x="-6"
     inkscape:window-y="-6"
     inkscape:window-maximized="1"
     inkscape:current-layer="svg1" />
  <metadata
     id="metadata1">
Created by potrace 1.15, written by Peter Selinger 2001-2017
</metadata>
  <g
     transform="translate(0.000000,640.000000) scale(0.100000,-0.100000)"
     fill="#000000"
     stroke="none"
     id="g1">
    <path
       d="m 6195,5939 c -257,-21 -396,-54 -670,-157 -164,-61 -246,-105 -463,-249 -238,-158 -472,-410 -631,-678 -101,-170 -165,-325 -251,-607 -18,-60 -37,-108 -42,-108 -5,0 -27,12 -50,26 -87,55 -270,126 -377,145 -140,25 -298,34 -401,21 -263,-33 -681,-205 -1205,-497 -238,-132 -292,-164 -575,-339 -302,-186 -468,-277 -605,-330 -102,-39 -221,-66 -292,-66 -125,-1 -237,-41 -443,-158 -85,-48 -164,-92 -175,-98 -31,-14 187,-17 335,-4 284,24 285,25 1050,495 568,349 676,412 940,550 347,181 470,233 735,314 169,51 264,65 430,65 122,-1 165,-5 230,-22 135,-37 360,-156 386,-204 13,-24 -7,-128 -24,-128 -7,0 -46,7 -87,16 -92,20 -326,14 -440,-10 -103,-23 -292,-88 -429,-148 -188,-83 -692,-393 -903,-556 -57,-44 -191,-144 -299,-223 -293,-216 -422,-314 -444,-339 -11,-12 -40,-36 -65,-53 -25,-17 -69,-51 -98,-75 -60,-51 -54,-50 -335,-87 l -189,-25 -71,-53 c -40,-30 -132,-94 -205,-142 -73,-48 -131,-89 -129,-92 7,-6 306,17 357,28 83,18 174,51 265,96 138,69 469,304 850,602 188,148 204,159 495,362 542,378 842,540 1160,626 95,25 121,28 265,28 176,0 256,-14 280,-48 45,-64 43,-201 -4,-248 -31,-30 -57,-39 -211,-67 -257,-47 -511,-192 -899,-515 -191,-159 -285,-248 -648,-619 -234,-238 -469,-482 -523,-543 -54,-60 -108,-120 -121,-131 -34,-31 -111,-44 -254,-44 -201,0 -297,-28 -500,-145 -63,-36 -118,-65 -123,-65 -5,0 -17,-9 -27,-20 -18,-20 -17,-20 191,-20 314,0 396,19 626,147 115,63 144,84 177,127 90,119 750,798 1091,1122 216,206 521,430 720,530 147,73 364,137 452,132 50,-3 54,-5 75,-43 43,-78 65,-237 43,-314 -13,-48 -45,-78 -120,-116 -36,-18 -87,-48 -115,-67 -253,-173 -318,-236 -639,-620 -116,-138 -307,-396 -423,-568 -64,-96 -126,-186 -139,-200 -12,-14 -86,-122 -165,-240 C 2324,967 2203,854 2035,820 1882,790 1823,769 1772,727 1745,704 1659,638 1581,581 1443,479 1416,452 1464,464 c 26,6 186,29 371,51 159,20 158,20 202,61 44,42 297,235 331,253 27,15 29,31 2,24 -11,-3 -20,-1 -20,5 0,12 264,411 407,616 319,455 491,688 601,817 225,265 277,320 381,408 40,34 83,73 95,86 44,50 367,223 380,204 1,-2 28,-70 59,-151 79,-199 267,-518 354,-599 21,-20 64,-65 96,-102 74,-85 231,-226 338,-302 80,-58 87.6125,-67.2307 158,-185 370.2085,-619.4165 2129.4425,-610.5832 2396,47 63.6744,157.0814 85,165 192,246 94,72 312,309 403,437 80,115 189,320 274,520 39,92 48,105 68,103 71,-5 251,-100 413,-219 162,-118 446,-430 702,-769 58,-77 118,-154 132,-170 15,-17 147,-210 295,-430 147,-220 290,-431 316,-470 54,-77 61,-100 29,-92 -11,3 -19,2 -17,-2 2,-5 75,-62 163,-128 88,-66 169,-130 180,-142 30,-34 63,-48 135,-56 81,-8 394,-52 438,-61 37,-7 44,9 11,26 -11,7 -28,18 -37,26 -9,7 -31,24 -48,36 -17,13 -77,58 -133,101 -123,95 -175,119 -326,156 -140,35 -181,60 -296,178 -107,110 -150,167 -444,593 -131,190 -261,377 -290,415 -28,39 -83,113 -122,165 -100,136 -441,509 -562,615 -138,121 -207,166 -368,240 -158,71 -154,67 -141,193 11,106 40,183 81,218 31,26 34,27 137,21 166,-8 276,-42 476,-143 95,-48 189,-102 210,-120 22,-18 84,-69 139,-112 227,-180 645,-570 945,-884 107,-111 254,-264 326,-339 73,-76 146,-157 163,-182 25,-34 59,-59 152,-112 269,-152 338,-169 636,-159 117,3 210,10 207,15 -9,15 -288,157 -359,182 -86,30 -174,44 -330,52 -66,3 -137,11 -158,17 -41,12 -108,78 -388,378 -134,145 -532,552 -659,674 -25,24 -72,65 -105,92 -33,26 -94,80 -135,119 -82,78 -349,282 -486,371 -100,66 -259,139 -397,183 -76,24 -128,33 -235,41 -75,5 -148,10 -161,10 -24,0 -24,0 -19,99 9,178 52,213 286,230 246,19 404,-12 682,-136 273,-122 506,-264 930,-568 85,-61 178,-126 205,-145 28,-18 68,-49 90,-68 118,-101 616,-476 843,-635 142,-99 238,-141 375,-162 124,-18 385,-31 372,-17 -20,19 -293,201 -336,222 -103,53 -189,75 -410,103 l -106,14 -154,116 c -85,63 -181,138 -214,166 -33,27 -123,96 -200,152 -77,57 -176,131 -220,165 -446,345 -1068,716 -1361,812 -144,47 -213,57 -399,57 -146,-1 -182,-4 -255,-24 -140,-38 -126,-40 -134,22 -3,31 -4,61 -1,69 16,39 296,190 420,226 184,54 405,54 620,1 97,-25 415,-149 582,-229 236,-113 594,-316 1224,-696 467,-281 679,-402 745,-425 112,-40 188,-49 396,-49 200,0 201,0 183,20 -10,11 -23,20 -28,20 -5,0 -61,29 -124,65 -196,113 -289,143 -518,169 -224,26 -315,68 -787,364 -340,213 -463,284 -833,480 -487,257 -751,350 -1092,384 -138,14 -271,1 -388,-37 -90,-29 -405,-182 -405,-196 0,-5 -4,-9 -10,-9 -5,0 -10,13 -10,29 0,41 -92,329 -146,458 -99,238 -307,547 -485,720 -76,75 -252,213 -368,290 -227,150 -653,306 -941,343 -119,16 -325,20 -455,9 z"
       id="path1"
       sodipodi:nodetypes="cccccscccccccccccccccssccccccsccccsccccccscccccccscscscccccccccccccccccccccscccccccccsscccccccccccscccccccccccccccccccccccccsccccccscccsccccccccccccccccccccccccccscsccccccsssccccc" />
  </g>
  <circle
     style="opacity:1;fill:#ffffff;fill-opacity:1;stroke:#ffffff;stroke-width:0.850395;stroke-linecap:round;stroke-linejoin:round;paint-order:fill markers stroke"
     id="path2"
     cx="574.96899"
     cy="417.14996"
     r="58.686493" />
  <ellipse
     style="opacity:1;fill:#000000;fill-opacity:1;stroke:none;stroke-width:0.850395;stroke-linecap:round;stroke-linejoin:round;paint-order:fill markers stroke"
     id="path3"
     cx="571.59851"
     cy="413.97769"
     rx="23.990086"
     ry="25.377943" />
  <circle
     style="fill:#ffffff;fill-opacity:1;stroke:#ffffff;stroke-width:0.850395;stroke-linecap:round;stroke-linejoin:round;paint-order:fill markers stroke"
     id="path2-8"
     cx="705.3916"
     cy="421.22757"
     r="58.686493" />
  <ellipse
     style="fill:#000000;fill-opacity:1;stroke:none;stroke-width:0.850395;stroke-linecap:round;stroke-linejoin:round;paint-order:fill markers stroke"
     id="path3-2"
     cx="702.02112"
     cy="418.0553"
     rx="23.990086"
     ry="25.377943" />
</svg>
